<svg xmlns="http://www.w3.org/2000/svg" viewBox="0 0 24 24" stroke="currentColor" class="feather"><path d="M 15.691406 1.0039062 C 15.303543 0.97891235 14.915771 1.06958 14.572266 1.2695312 L 4.7285156 7 L 3 7 C 1.8969727 7 1 7.8969732 1 9 L 1 21 C 1 22.103027 1.8969727 23 3 23 L 20 23 C 21.103027 23 22 22.103027 22 21 L 22 17.908203 C 22.580749 17.701111 23 17.151001 23 16.5 L 23 13.5 C 23 12.848999 22.580749 12.298889 22 12.091797 L 22 9 C 22 7.9514775 21.187683 7.0983276 20.160156 7.015625 L 17.287109 2 C 17.020996 1.5361328 16.592285 1.2060547 16.078125 1.0683594 C 15.950195 1.0341797 15.820694 1.0122376 15.691406 1.0039062 z M 15.4375 2.0078125 C 15.563354 1.9909058 15.692383 1.9995117 15.818359 2.0332031 C 16.07373 2.1015625 16.287598 2.2670898 16.419922 2.4980469 L 17.394531 4.1992188 C 16.950134 4.3967286 16.475098 4.5 16 4.5 C 14.926147 4.5 13.941772 4.0123904 13.28125 3.1777344 L 15.076172 2.1328125 C 15.189453 2.0666504 15.311646 2.0247192 15.4375 2.0078125 z M 12.412109 3.6835938 C 13.260254 4.8270267 14.566895 5.5 16 5.5 C 16.648743 5.5 17.291016 5.3480835 17.888672 5.0664062 L 18.998047 7 L 6.7167969 7 L 12.412109 3.6835938 z M 3 8 L 20 8 C 20.55127 8 21 8.4487305 21 9 L 21 12 L 18 12 C 16.345703 12 15 13.345703 15 15 C 15 16.654297 16.345703 18 18 18 L 21 18 L 21 21 C 21 21.55127 20.55127 22 20 22 L 3 22 C 2.4487305 22 2 21.55127 2 21 L 2 9 C 2 8.4487305 2.4487305 8 3 8 z M 18 13 L 21.5 13 C 21.775879 13 22 13.224121 22 13.5 L 22 16.5 C 22 16.775879 21.775879 17 21.5 17 L 18 17 C 16.896973 17 16 16.103028 16 15 C 16 13.896972 16.896973 13 18 13 z M 18 14 C 17.44873 14 17 14.448731 17 15 C 17 15.55127 17.44873 16 18 16 C 18.55127 16 19 15.55127 19 15 C 19 14.44873 18.55127 14 18 14 z"></path></svg>